<svg width="800" height="600" xmlns="http://www.w3.org/2000/svg">

 <g>
  <title>Layer 1</title>
  <path id="svg_13" d="m254.5,275c0,-1 134,-269 133.5,-269c0.5,0 95.5,264 95.5,264c0,0 -104,141 -104,141c0,0 -122,-143 -122,-143" opacity="NaN" stroke="#000" fill="none"/>
  <path id="svg_14" d="m253.5,297c0,0 124,149 123.5,149c0.5,0 112.5,-149 112,-149c0.5,0 -106.5,276 -107,276c0.5,0 -128.5,-276 -128.5,-276z" opacity="NaN" stroke="#000" fill="none"/>
  <path id="svg_18" d="m388.5,11c0,0 -7,231 -7.5,231c0.5,0 -117.5,25 -118,25c0.5,0 125.5,-256 125.5,-256z" opacity="NaN" stroke="#000" fill="none"/>
  <path id="svg_19" d="m379.5,396c0,0 1,-149 1,-150c0,-1 101,24 100.5,24c0.5,0 -99.5,135 -100,135" opacity="NaN" stroke="#000" fill="none"/>
  <path id="svg_20" d="m315.5,437c36,78 66,142 67,142c1,0 58,-138 58,-138c0,0 49,-135 49,-136c0,-1 -111,145 -111,145c0,0 -121,-144 -122,-144c-1,0 23,53 59,131z" opacity="NaN" stroke="#000" fill="none"/>
 </g>
</svg>