<svg width="1200" height="1600" xmlns="http://www.w3.org/2000/svg">

 <g>
  <title>Layer 1</title>
  <g stroke="null" id="svg_25">
   <path stroke="#000" id="svg_13" d="m301.94916,785.98776c0,-2.2007 328.18641,-591.98775 326.96184,-591.98775c1.22458,0 233.89405,580.98426 233.89405,580.98426c0,0 -254.71184,310.29841 -254.71184,310.29841c0,0 -298.79659,-314.69981 -298.79659,-314.69981" opacity="NaN" fill="none"/>
   <path stroke="#000" id="svg_14" d="m299.50001,834.40312c0,0 303.69489,327.904 302.47031,327.904c1.22458,0 275.52964,-327.904 274.30506,-327.904c1.22458,0 -260.83472,607.39264 -262.0593,607.39264c1.22458,0 -314.71608,-607.39264 -314.71608,-607.39264z" opacity="NaN" fill="none"/>
   <path stroke="#000" id="svg_18" d="m630.13557,205.0035c0,0 -17.14407,508.36123 -18.36864,508.36123c1.22458,0 -287.7754,55.01745 -288.99998,55.01745c1.22458,0 307.36862,-563.37868 307.36862,-563.37868z" opacity="NaN" fill="none"/>
   <path stroke="#000" id="svg_19" d="m608.0932,1052.27221c0,0 2.44915,-327.904 2.44915,-330.10469c0,-2.2007 247.36439,52.81675 246.13981,52.81675c1.22458,0 -243.69066,297.09422 -244.91523,297.09422" opacity="NaN" fill="none"/>
   <path stroke="#000" id="svg_20" d="m451.34745,1142.50083c88.16948,171.65444 161.64405,312.49911 164.09321,312.49911c2.44915,0 142.05084,-303.69632 142.05084,-303.69632c0,0 120.00846,-297.09422 120.00846,-299.29492c0,-2.2007 -271.85591,319.1012 -271.85591,319.1012c0,0 -296.34743,-316.90051 -298.79659,-316.90051c-2.44915,0 56.3305,116.63699 144.49999,288.29143z" opacity="NaN" fill="none"/>
   <path stroke="#000" id="svg_21" d="m341.1356,752.97729c0,0 139.60168,-26.40838 139.60168,-28.60907c0,-2.2007 120.00846,-24.20768 118.78389,-24.20768c1.22458,0 6.12288,-101.23211 6.12288,-101.23211c0,0 2.44915,-52.81675 1.22458,-52.81675c1.22458,0 3.67373,-101.23211 3.67373,-101.23211c0,0 4.8983,-72.62303 3.67373,-72.62303c1.22458,0 3.67373,-44.01396 3.67373,-44.01396c0,0 4.8983,-61.61954 3.67373,-61.61954c1.22458,0 6.12288,-35.21117 4.8983,-35.21117" opacity="NaN" fill="none"/>
   <path stroke="#000" id="svg_22" d="m850.55928,761.78008c0,0 -58.77966,-11.00349 -58.77966,-13.20419c0,-2.2007 -36.73729,-8.80279 -37.96186,-8.80279c1.22458,0 -45.30932,-11.00349 -46.53389,-11.00349c1.22458,0 -40.41101,-8.80279 -40.41101,-8.80279c0,0 -26.94068,-8.80279 -29.38983,-8.80279c-2.44915,0 -24.49152,-4.4014 -24.49152,-4.4014c0,0 4.8983,50.61605 4.8983,50.61605c0,0 2.44915,57.21815 1.22458,57.21815c1.22458,0 -1.22458,66.02094 -2.44915,66.02094c1.22458,0 1.22458,41.81326 1.22458,44.01396c0,2.2007 0,41.81326 -1.22458,41.81326c1.22458,0 -6.12288,28.60907 -3.67373,30.80977c2.44915,2.2007 7.34746,35.21117 7.34746,35.21117c0,0 -7.34746,24.20768 -8.57203,24.20768" opacity="NaN" fill="none"/>
   <path stroke="#000" id="svg_23" d="m328.88983,777.18497c0,0 46.53389,41.81326 45.30932,41.81326c1.22458,0 25.7161,35.21117 25.7161,35.21117c0,0 29.38983,33.01047 31.83898,35.21117c2.44915,2.2007 24.49152,37.41187 24.49152,37.41187c0,0 26.94068,22.00698 29.38983,22.00698c2.44915,0 24.49152,30.80977 26.94068,30.80977c2.44915,0 31.83898,41.81326 34.28813,41.81326c2.44915,0 22.04237,26.40838 20.81779,26.40838c1.22458,0 45.30932,44.01396 45.30932,44.01396c0,0 46.53389,-50.61605 45.30932,-50.61605c1.22458,0 28.16525,-33.01047 28.16525,-35.21117c0,-2.2007 41.63559,-72.62303 41.63559,-72.62303c0,0 44.08474,-39.61256 44.08474,-39.61256c0,0 19.59322,-30.80977 19.59322,-33.01047c0,-2.2007 56.3305,-55.01745 56.3305,-55.01745c0,0 19.59322,-26.40838 19.59322,-28.60907c0,-2.2007 -29.38983,-81.42582 -31.83898,-83.62652c-2.44915,-2.2007 -12.24576,-37.41187 -13.47034,-37.41187c1.22458,0 -18.36864,-44.01396 -20.81779,-48.41536c-2.44915,-4.4014 -29.38983,-79.22513 -30.6144,-79.22513c1.22458,0 -20.81779,-46.21466 -23.26695,-55.01745c-2.44915,-8.80279 -17.14407,-52.81675 -18.36864,-52.81675c1.22458,0 -47.75847,-94.63001 -48.98305,-94.63001c1.22458,0 -8.57203,-44.01396 -11.02119,-46.21466c-2.44915,-2.2007 -19.59322,-39.61256 -19.59322,-39.61256c0,0 -19.59322,-35.21117 -19.59322,-35.21117c0,0 -26.94068,26.40838 -28.16525,26.40838c1.22458,0 -35.51271,90.22862 -35.51271,90.22862c0,0 -29.38983,41.81326 -29.38983,44.01396c0,2.2007 -39.18644,55.01745 -39.18644,55.01745c0,0 -24.49152,68.22164 -26.94068,72.62303c-2.44915,4.4014 -17.14407,44.01396 -19.59322,46.21466c-2.44915,2.2007 -56.3305,59.41884 -56.3305,63.82024c0,4.4014 -14.69491,35.21117 -19.59322,50.61605c-4.8983,15.40489 -14.69491,52.81675 -15.91949,52.81675c1.22458,0 -20.81779,22.00698 -20.81779,24.20768c0,2.2007 -26.94068,17.60558 -28.16525,17.60558" opacity="NaN" fill="none"/>
   <path stroke="#000" id="svg_24" d="m309.29661,874.01568c0,0 61.22881,127.64048 60.00423,127.64048c1.22458,0 13.47034,44.01396 15.91949,46.21466c2.44915,2.2007 36.73729,63.82024 36.73729,66.02094c0,2.2007 26.94068,88.02792 26.94068,90.22862c0,2.2007 41.63559,50.61605 44.08474,52.81675c2.44915,2.2007 24.49152,30.80977 24.49152,30.80977c0,0 31.83898,85.82722 36.73729,90.22862c4.8983,4.4014 44.08474,55.01745 46.53389,57.21815c2.44915,2.2007 31.83898,8.80279 31.83898,8.80279c0,0 9.79661,-30.80977 14.69491,-46.21466c4.8983,-15.40489 19.59322,-57.21815 26.94068,-72.62303c7.34746,-15.40489 29.38983,-46.21466 39.18644,-70.42233c9.79661,-24.20768 36.73729,-90.22862 41.63559,-105.6335c4.8983,-15.40489 22.04237,-83.62652 24.49152,-96.83071c2.44915,-13.20419 41.63559,-90.22862 44.08474,-96.83071c2.44915,-6.60209 31.83898,-74.82373 31.83898,-74.82373c0,0 -31.83898,-13.20419 -33.06356,-13.20419c1.22458,0 -72.24999,118.83769 -73.47457,118.83769c1.22458,0 -25.7161,46.21466 -26.94068,46.21466c1.22458,0 -79.59745,63.82024 -79.59745,66.02094c0,2.2007 -22.04237,46.21466 -24.49152,46.21466c-2.44915,0 -19.59322,8.80279 -19.59322,8.80279c0,0 -29.38983,-22.00698 -29.38983,-24.20768c0,-2.2007 -36.73729,-44.01396 -41.63559,-50.61605c-4.8983,-6.60209 -44.08474,-44.01396 -46.53389,-46.21466c-2.44915,-2.2007 -34.28813,-28.60907 -39.18644,-37.41187c-4.8983,-8.80279 -41.63559,-50.61605 -41.63559,-52.81675c0,-2.2007 -46.53389,-48.41536 -46.53389,-50.61605c0,-2.2007 -44.08474,-17.60558 -44.08474,-17.60558z" opacity="NaN" fill="none"/>
   <path id="svg_27" d="m633.499,223.99913c-304.60916,553.18584 -6.99999,42.99997 -6.99999,44.99996c0,2 1,38.99997 1,40.99997c0,2 2,35.99997 2,35.99997c0,0 0,37.99997 0,41.99997c0,4 -3,19.99998 -5,37.99997c-2,17.99999 -9.99999,57.99995 -10.49953,57.00062c0.49954,0.99933 2.49954,62.99928 2.49954,63.99928c0,1 8.99999,65.99995 8.99999,65.99995c0,0 -4,41.99997 -6,44.99996c-2,3 -5,8.99999 -5,10.99999c0,2 -3,36.99997 -3.49954,36.00063c0.49954,0.99934 0.49954,20.49932 0.49954,20.49932c0,0 1,12.99999 0,22.99998c-1,9.99999 -4,32.99997 -3,36.99997c1,4 2,36.99997 3,38.99997c1,2 1,24.99998 1,28.99998c0,4 -3,42.99997 -3,44.99996c0,2 -1,3 -1,17.99999c0,14.99999 -1,24.99998 0,31.99997c1,6.99999 5,33.99997 5,34.99997c0,1 2,8.99999 1.50046,8.50064c0.49954,0.49935 -1.50046,36.49932 -1.50046,36.49932c0,0 0,18.99998 -1,20.99998c-1,2 0,17.99999 1,18.99998c1,1 -1,12.99999 -1,12.99999" opacity="NaN" stroke="#000" fill="none"/>
  </g>
  <path id="svg_26" d="m343.49923,769.99868c300.0177,503.15658 26.99998,-4 27.99998,-4c1,0 42.99997,-7.99999 42.50043,-8.99934c0.49953,0.99934 30.49951,-1.00066 30.49951,-1.00066c0,0 29.99998,-5 30.99997,-6.99999c1,-2 21.99998,-9.99999 24.99998,-10.99999c3,-1 48.99996,-6.99999 49.99996,-6.99999c1,0 21.99998,-4 21.99998,-4c0,0 13.99999,-3 14.99999,-3c1,0 29.99998,-5 29.99998,-5c0,0 39.99997,10.99999 39.99997,10.99999c0,0 37.99997,12.99999 38.99997,12.99999c1,0 33.99997,2 33.99997,2c0,0 40.99997,7.99999 40.99997,8.99999c0,1 14.99999,5 14.50044,4.00065c0.49955,0.99934 50.49951,9.99934 50.49951,9.99934c0,0 36.99997,8.99999 36.50042,8.00065" opacity="NaN" stroke="#000" fill="none"/>
  <path id="svg_28" d="m873.4988,764.99869c0,-1 -8.99999,-12.99999 -12.99999,-21.99998c-4,-8.99999 -10.99999,-19.99998 -11.99999,-26.99998c-1,-6.99999 -9.99999,-37.99997 -10.99999,-39.99997c-1,-2 -15.99999,-30.99997 -16.99999,-33.99997c-1,-3 -5,-15.99999 -10.99999,-30.99997c-6,-14.99999 -9.99999,-21.99998 -15.99999,-39.99997c-6,-17.99999 -9.99999,-21.99998 -18.99998,-48.99996c-8.99999,-26.99998 -12.99999,-32.99997 -19.99998,-60.99995c-6.99999,-27.99998 -8.99999,-27.99998 -13.99999,-46.99996c-5,-18.99998 -15.99999,-45.99996 -19.99998,-56.99995c-4,-10.99999 -4,-10.99999 -11.99999,-26.99998c-7.99999,-15.99999 -13.99999,-26.99998 -18.99998,-34.99997c-5,-7.99999 -12.99999,-21.99998 -16.99999,-30.99997c-4,-8.99999 3,-5 -6,-13.99999c-8.99999,-8.99999 -8.99999,-5 -11.99999,-11.99999c-3,-6.99999 -13.99999,-19.99998 -14.99999,-19.99998c-1,0 -33.99997,26.99998 -33.99997,31.99997c0,5 -5,20.99998 -6.99999,25.99998c-2,5 -5,9.99999 -7.99999,15.99999c-3,6 -14.99999,28.99998 -16.99999,31.99997c-2,3 -19.99998,35.99997 -21.99998,40.99997c-2,5 -17.99999,31.99997 -21.99998,36.99997c-4,5 -16.99999,19.99998 -17.99999,22.99998c-1,3 -6,14.99999 -9.99999,20.99998c-4,6 -26.99998,41.99997 -32.99997,52.99996c-6,10.99999 -20.99998,36.99997 -24.99998,51.99996c-4,14.99999 -11.99999,39.99997 -12.99999,45.99996c-1,6 -5,14.99999 -8.99999,19.99998c-4,5 -22.99998,28.99998 -29.99998,36.99997c-6.99999,7.99999 -6.99999,6.99999 -9.99999,12.99999c-3,6 -16.99999,30.99997 -18.99998,35.99997c-2,5 -6.99999,14.99999 -7.99999,16.99999c-1,2 -5,8.99999 -7.99999,12.99999c-3,4 -20.99998,24.99998 -21.49951,24.00064c0.49953,0.99934 1.49953,31.99932 1.49953,31.99932c0,0 50.99996,50.99996 51.99996,52.99996c1,2 14.99999,29.99998 17.99999,35.99997c3,6 28.99998,37.99997 29.99998,38.99997c1,1 20.99998,13.99999 21.99998,15.99999c1,2 12.99999,10.99999 13.99999,12.99999c1,2 45.99996,52.99996 45.99996,52.99996c0,0 9.99999,8.99999 10.99999,9.99999c1,1 26.99998,29.99998 28.99998,31.99997c2,2 18.99998,17.99999 20.99998,19.99998c2,2 24.99998,20.99998 26.99998,22.99998c2,2 16.99999,8.99999 17.99999,8.99999c1,0 9.99999,0 9.99999,0c0,0 13.99999,-18.99998 18.99998,-28.99998c5,-9.99999 17.99999,-29.99998 21.99998,-35.99997c4,-6 20.99998,-22.99998 24.99998,-30.99997c4,-7.99999 21.99998,-29.99998 25.99998,-35.99997c4,-6 24.99998,-22.99998 28.99998,-29.99998c4,-6.99999 24.99998,-23.99998 26.99998,-27.99998c2,-4 9.99999,-13.99999 11.99999,-16.99999c2,-3 29.99998,-35.99997 33.99997,-41.99997c4,-6 30.99997,-31.99997 31.99997,-33.99997c1,-2 3,-4 7.99999,-12.99999c5,-8.99999 16.99999,-22.99998 16.50043,-23.99932c0.49955,0.99934 -41.50041,-4.00065 -45.50041,-4.00065c-4,0 -9.99999,1 -20.99998,0c-10.99999,-1 -19.99998,-3 -37.99997,-6.99999c-17.99999,-4 -20.99998,-6.99999 -31.99997,-8.99999c-10.99999,-2 -11.99999,-3 -18.99998,-5c-6.99999,-2 -1,0 -18.99998,-6c-17.99999,-6 -27.99998,-11.99999 -44.99996,-14.99999c-16.99999,-3 -27.99998,-8.99999 -35.99997,-8.99999c-7.99999,0 -1,-2 -17.99999,0c-16.99999,2 -17.99999,0 -29.99998,3c-11.99999,3 -22.99998,5 -37.99997,9.99999c-14.99999,5 -26.99998,4 -47.99996,9.99999c-20.99998,6 -38.99997,7.99999 -43.99996,8.99999c-5,1 -1,-2 -16.99999,3c-15.99999,5 -23.99998,5 -39.99997,8.99999c-15.99999,4 -23.99998,5 -31.99997,7.99999c-7.99999,3 -23.99998,6.99999 -28.99998,8.99999" opacity="NaN" stroke="#000" fill="none"/>
  <path id="svg_29" d="m315.49925,863.49861c20.39057,-75.31365 9.99999,37.99997 10.99999,40.99997c1,3 7.99999,20.99998 9.99999,24.99998c2,4 9.99999,15.99999 10.99999,16.99999c1,1 14.99999,26.99998 19.99998,33.99997c5,6.99999 9.99999,11.99999 20.99998,35.99997c10.99999,23.99998 32.99997,72.99994 35.99997,79.99993c3,6.99999 5,9.99999 9.99999,22.99998c5,12.99999 8.99999,20.99998 16.99999,37.99997c7.99999,16.99999 16.99999,32.99997 22.99998,46.99996c6,13.99999 14.99999,28.99998 27.99998,52.99996c12.99999,23.99998 27.99998,36.99997 32.99997,52.99996c5,15.99999 19.99998,40.99997 31.99997,61.99995c11.99999,20.99998 18.99998,25.99998 24.99998,35.99997c6,9.99999 19.99998,22.99998 20.99998,25.99998" opacity="NaN" stroke="#000" fill="none"/>
  <path id="svg_30" d="m617.49901,1446.49813c1,-1 36.99997,-71.99994 36.99997,-72.99994c0,-1 17.99999,-43.99996 19.99998,-48.99996c2,-5 10.99999,-23.99998 14.99999,-34.99997c4,-10.99999 18.99998,-38.99997 21.99998,-46.99996c3,-7.99999 13.99999,-26.99998 18.99998,-37.99997c5,-10.99999 22.99998,-36.99997 26.99998,-44.99996c4,-7.99999 19.99998,-33.99997 21.99998,-40.99997c2,-6.99999 19.99998,-46.99996 21.99998,-63.99995c2,-16.99999 3,-27.99998 7.99999,-41.99997c5,-13.99999 12.99999,-34.99997 14.99999,-43.99996c2,-8.99999 3,-17.99999 7.99999,-27.99998c5,-9.99999 9.99999,-23.99998 16.99999,-34.99997c6.99999,-10.99999 15.99999,-23.99998 16.99999,-32.99997c1,-8.99999 0,-10.99999 -0.49955,-11.49934c0.49955,0.49935 -32.50042,33.49932 -32.99997,32.99997c0.49955,0.49935 -14.50044,20.49933 -18.50043,26.49933c-4,6 -15.99999,23.99998 -17.99999,26.99998c-2,3 -18.99998,24.99998 -21.99998,30.99997c-3,6 -24.99998,27.99998 -25.99998,29.99998c-1,2 -19.99998,19.99998 -24.99998,27.99998c-5,7.99999 -7.99999,11.99999 -14.99999,22.99998c-6.99999,10.99999 -11.99999,13.99999 -19.99998,26.99998c-7.99999,12.99999 -18.99998,25.99998 -23.99998,32.99997c-5,6.99999 -18.99998,20.99998 -26.99998,29.99998c-7.99999,8.99999 -11.99999,12.99999 -13.99999,13.99999c-2,1 -23.99998,9.99999 -22.99998,10.99999c1,1 -6.99999,-11.99999 -7.99999,-12.99999c-1,-1 -18.99998,-22.99998 -20.99998,-24.99998c-2,-2 -11.99999,-12.99999 -14.99999,-15.99999c-3,-3 -14.99999,-18.99998 -15.99999,-19.99998c-1,-1 -9.99999,-12.99999 -10.99999,-13.99999c-1,-1 -8.99999,-7.99999 -15.99999,-15.99999c-6.99999,-7.99999 -23.99998,-26.99998 -28.99998,-31.99997c-5,-5 -30.99997,-36.99997 -31.99997,-38.99997c-1,-2 10.99999,6.99999 -6.99999,-10.99999c-17.99999,-17.99999 -28.99998,-28.99998 -31.99997,-32.99997c-3,-4 -13.99999,-8.99999 -22.99998,-22.99998c-8.99999,-13.99999 -17.99999,-30.99997 -22.99998,-36.99997c-5,-6 -6.99999,-9.99999 -13.99999,-15.99999c-6.99999,-6 -8.99999,-8.99999 -15.99999,-13.99999c-6.99999,-5 -11.99999,-8.99999 -11.99999,-8.99999" opacity="NaN" stroke="#000" fill="none"/>
 </g>
</svg>